<svg xmlns="http://www.w3.org/2000/svg" xmlns:xlink="http://www.w3.org/1999/xlink" width="273" zoomAndPan="magnify" viewBox="0 0 204.75 73.499998" height="98" preserveAspectRatio="xMidYMid meet" version="1.0"><defs><clipPath id="ea96ab9856"><path d="M 1.441406 1.382812 L 73 1.382812 L 73 72.875 L 1.441406 72.875 Z M 1.441406 1.382812 " clip-rule="nonzero"/></clipPath></defs><g clip-path="url(#ea96ab9856)"><path fill="#d9d9d9" d="M 37.183594 3.222656 C 18.464844 3.222656 3.285156 18.402344 3.285156 37.128906 C 3.285156 55.851562 18.464844 71.035156 37.183594 71.035156 C 55.90625 71.035156 71.082031 55.855469 71.082031 37.128906 C 71.082031 18.40625 55.90625 3.222656 37.183594 3.222656 Z M 1.445312 37.128906 C 1.445312 17.382812 17.445312 1.382812 37.183594 1.382812 C 56.921875 1.382812 72.925781 17.386719 72.925781 37.128906 C 72.925781 56.871094 56.921875 72.875 37.183594 72.875 C 17.449219 72.875 1.445312 56.871094 1.445312 37.128906 Z M 1.445312 37.128906 " fill-opacity="1" fill-rule="evenodd"/></g><path fill="#d9d9d9" d="M 52.816406 24.425781 C 52.769531 24.015625 52.703125 23.605469 52.613281 23.203125 C 52.523438 22.796875 52.410156 22.398438 52.273438 22.007812 C 52.136719 21.613281 51.980469 21.230469 51.800781 20.859375 C 51.621094 20.484375 51.421875 20.121094 51.203125 19.769531 C 50.984375 19.417969 50.742188 19.078125 50.488281 18.753906 C 50.226562 18.429688 49.953125 18.121094 49.660156 17.828125 C 49.367188 17.535156 49.058594 17.257812 48.734375 17 C 48.410156 16.742188 48.070312 16.503906 47.71875 16.28125 C 46.832031 15.730469 45.878906 15.324219 44.867188 15.0625 C 43.851562 14.800781 42.824219 14.695312 41.777344 14.75 L 37.273438 14.976562 L 32.765625 14.75 C 31.71875 14.695312 30.691406 14.800781 29.675781 15.0625 C 28.664062 15.324219 27.710938 15.730469 26.824219 16.28125 C 26.46875 16.503906 26.132812 16.742188 25.808594 17 C 25.484375 17.257812 25.175781 17.535156 24.882812 17.828125 C 24.585938 18.121094 24.3125 18.429688 24.050781 18.753906 C 23.792969 19.078125 23.554688 19.417969 23.332031 19.769531 C 23.113281 20.121094 22.914062 20.480469 22.734375 20.855469 C 22.554688 21.230469 22.398438 21.613281 22.261719 22.003906 C 22.125 22.398438 22.011719 22.796875 21.921875 23.199219 C 21.832031 23.605469 21.761719 24.015625 21.71875 24.425781 L 18.976562 48.636719 L 17.0625 65.542969 C 17.796875 66.0625 18.546875 66.550781 19.320312 67.015625 C 20.089844 67.476562 20.878906 67.90625 21.683594 68.304688 C 22.488281 68.703125 23.304688 69.074219 24.136719 69.410156 C 24.972656 69.746094 25.816406 70.050781 26.671875 70.320312 C 27.527344 70.59375 28.394531 70.832031 29.269531 71.035156 C 30.144531 71.238281 31.027344 71.410156 31.914062 71.542969 C 32.800781 71.679688 33.695312 71.78125 34.589844 71.847656 C 35.484375 71.914062 36.382812 71.949219 37.28125 71.945312 C 38.179688 71.941406 39.078125 71.90625 39.972656 71.832031 C 40.867188 71.761719 41.757812 71.65625 42.648438 71.515625 C 43.535156 71.375 44.414062 71.199219 45.289062 70.988281 C 46.164062 70.78125 47.027344 70.539062 47.882812 70.261719 C 48.738281 69.984375 49.578125 69.675781 50.410156 69.335938 C 51.242188 68.996094 52.058594 68.621094 52.859375 68.214844 C 53.664062 67.8125 54.449219 67.378906 55.21875 66.914062 C 55.984375 66.449219 56.734375 65.953125 57.464844 65.429688 L 57.386719 64.730469 Z M 52.816406 24.425781 " fill-opacity="1" fill-rule="nonzero"/><path fill="#ffffff" d="M 27.515625 22.160156 C 28.113281 22.160156 28.601562 22.871094 28.601562 23.738281 C 28.601562 24.605469 28.113281 25.316406 27.511719 25.316406 C 26.914062 25.316406 26.425781 24.609375 26.425781 23.738281 C 26.425781 22.867188 26.914062 22.160156 27.515625 22.160156 Z M 46.855469 22.160156 C 47.453125 22.160156 47.945312 22.871094 47.945312 23.738281 C 47.945312 24.605469 47.453125 25.316406 46.855469 25.316406 C 46.253906 25.316406 45.769531 24.609375 45.769531 23.738281 C 45.769531 22.867188 46.257812 22.160156 46.855469 22.160156 Z M 46.855469 22.160156 " fill-opacity="1" fill-rule="nonzero"/><path fill="#d9d9d9" d="M 37.183594 52.195312 C 37.695312 52.195312 38.203125 52.167969 38.710938 52.117188 C 39.21875 52.070312 39.71875 51.992188 40.21875 51.894531 C 40.71875 51.796875 41.214844 51.671875 41.703125 51.523438 C 42.1875 51.375 42.667969 51.203125 43.140625 51.007812 C 43.609375 50.8125 44.070312 50.597656 44.519531 50.355469 C 44.96875 50.117188 45.40625 49.855469 45.828125 49.570312 C 46.253906 49.289062 46.660156 48.984375 47.054688 48.660156 C 47.449219 48.335938 47.828125 47.996094 48.1875 47.636719 C 48.546875 47.273438 48.890625 46.898438 49.210938 46.503906 C 49.535156 46.109375 49.839844 45.703125 50.121094 45.277344 C 50.40625 44.855469 50.664062 44.417969 50.90625 43.96875 C 51.144531 43.519531 51.363281 43.058594 51.558594 42.585938 C 51.753906 42.117188 51.925781 41.636719 52.074219 41.148438 C 52.222656 40.664062 52.34375 40.167969 52.445312 39.667969 C 52.542969 39.167969 52.617188 38.664062 52.667969 38.160156 C 52.71875 37.652344 52.742188 37.144531 52.742188 36.632812 C 52.742188 36.125 52.71875 35.613281 52.667969 35.105469 C 52.617188 34.601562 52.542969 34.097656 52.445312 33.597656 C 52.34375 33.097656 52.222656 32.601562 52.074219 32.117188 C 51.925781 31.628906 51.753906 31.148438 51.558594 30.679688 C 51.363281 30.207031 51.144531 29.746094 50.90625 29.296875 C 50.664062 28.847656 50.40625 28.410156 50.121094 27.988281 C 49.839844 27.5625 49.535156 27.15625 49.210938 26.761719 C 48.890625 26.367188 48.546875 25.992188 48.1875 25.628906 C 47.828125 25.269531 47.449219 24.929688 47.054688 24.605469 C 46.660156 24.28125 46.253906 23.976562 45.828125 23.695312 C 45.40625 23.410156 44.96875 23.148438 44.519531 22.910156 C 44.070312 22.667969 43.609375 22.453125 43.140625 22.257812 C 42.667969 22.0625 42.1875 21.890625 41.703125 21.742188 C 41.214844 21.59375 40.71875 21.46875 40.21875 21.371094 C 39.71875 21.273438 39.21875 21.195312 38.710938 21.148438 C 38.203125 21.097656 37.695312 21.070312 37.183594 21.070312 C 36.675781 21.070312 36.167969 21.097656 35.660156 21.148438 C 35.152344 21.199219 34.652344 21.273438 34.152344 21.371094 C 33.652344 21.472656 33.15625 21.59375 32.671875 21.742188 C 32.183594 21.890625 31.703125 22.0625 31.234375 22.257812 C 30.761719 22.453125 30.300781 22.671875 29.851562 22.910156 C 29.402344 23.152344 28.96875 23.414062 28.542969 23.695312 C 28.121094 23.980469 27.710938 24.28125 27.316406 24.605469 C 26.925781 24.929688 26.546875 25.269531 26.1875 25.632812 C 25.828125 25.992188 25.484375 26.371094 25.160156 26.761719 C 24.839844 27.15625 24.535156 27.566406 24.253906 27.988281 C 23.96875 28.414062 23.707031 28.851562 23.46875 29.300781 C 23.226562 29.75 23.011719 30.210938 22.816406 30.679688 C 22.621094 31.152344 22.449219 31.628906 22.300781 32.117188 C 22.152344 32.605469 22.03125 33.097656 21.929688 33.597656 C 21.832031 34.097656 21.757812 34.601562 21.707031 35.109375 C 21.65625 35.617188 21.632812 36.125 21.632812 36.632812 C 21.632812 37.144531 21.65625 37.652344 21.707031 38.160156 C 21.757812 38.667969 21.832031 39.167969 21.929688 39.667969 C 22.03125 40.167969 22.152344 40.664062 22.300781 41.148438 C 22.449219 41.636719 22.621094 42.117188 22.816406 42.585938 C 23.011719 43.058594 23.226562 43.519531 23.46875 43.96875 C 23.707031 44.417969 23.96875 44.855469 24.253906 45.277344 C 24.535156 45.699219 24.839844 46.109375 25.160156 46.503906 C 25.484375 46.898438 25.828125 47.273438 26.1875 47.636719 C 26.546875 47.996094 26.925781 48.335938 27.316406 48.660156 C 27.710938 48.984375 28.121094 49.285156 28.542969 49.570312 C 28.96875 49.851562 29.402344 50.117188 29.851562 50.355469 C 30.300781 50.597656 30.761719 50.8125 31.234375 51.007812 C 31.703125 51.203125 32.183594 51.375 32.671875 51.523438 C 33.15625 51.671875 33.652344 51.796875 34.152344 51.894531 C 34.652344 51.996094 35.152344 52.070312 35.660156 52.121094 C 36.167969 52.167969 36.675781 52.195312 37.183594 52.195312 Z M 37.183594 52.195312 " fill-opacity="1" fill-rule="nonzero"/><path fill="#ffffff" d="M 51.613281 34.734375 L 51.546875 34.617188 L 51.472656 34.507812 C 51.285156 34.207031 51.078125 33.917969 50.855469 33.640625 C 50.746094 33.503906 50.636719 33.359375 50.515625 33.222656 L 50.148438 32.828125 C 49.363281 32.023438 48.464844 31.378906 47.453125 30.882812 L 47.246094 30.78125 C 47.375 30.316406 47.390625 29.824219 47.296875 29.347656 C 47.878906 29.324219 48.460938 29.359375 49.035156 29.449219 C 49.667969 29.550781 50.289062 29.738281 50.875 30.003906 C 51.472656 30.273438 52.027344 30.632812 52.519531 31.066406 C 52.109375 30.53125 51.628906 30.066406 51.082031 29.679688 C 50.511719 29.277344 49.894531 28.960938 49.238281 28.726562 C 48.574219 28.484375 47.890625 28.316406 47.1875 28.222656 L 46.929688 28.1875 C 46.804688 27.90625 46.667969 27.636719 46.511719 27.371094 C 44.632812 24.609375 40.898438 23.320312 37.175781 23.355469 C 33.457031 23.320312 29.722656 24.605469 27.84375 27.371094 C 27.6875 27.636719 27.546875 27.90625 27.425781 28.191406 L 27.167969 28.222656 C 26.46875 28.3125 25.789062 28.476562 25.125 28.714844 C 24.464844 28.949219 23.851562 29.265625 23.28125 29.667969 C 22.730469 30.054688 22.253906 30.519531 21.84375 31.054688 C 22.335938 30.621094 22.890625 30.261719 23.488281 29.992188 C 24.074219 29.726562 24.691406 29.542969 25.328125 29.441406 C 25.902344 29.347656 26.480469 29.3125 27.0625 29.335938 C 26.96875 29.8125 26.984375 30.304688 27.113281 30.773438 L 26.90625 30.871094 C 26.226562 31.199219 25.59375 31.601562 25.007812 32.082031 C 24.863281 32.1875 24.734375 32.320312 24.597656 32.449219 C 24.457031 32.5625 24.324219 32.6875 24.203125 32.816406 L 23.835938 33.214844 C 23.714844 33.347656 23.609375 33.492188 23.496094 33.628906 C 23.273438 33.90625 23.070312 34.199219 22.878906 34.496094 L 22.808594 34.609375 L 22.742188 34.722656 L 22.613281 34.953125 L 22.363281 35.414062 L 22.691406 35.003906 L 22.855469 34.804688 L 22.9375 34.703125 L 23.027344 34.609375 C 23.265625 34.355469 23.515625 34.113281 23.777344 33.882812 C 23.910156 33.769531 24.035156 33.65625 24.171875 33.550781 L 24.589844 33.242188 C 24.734375 33.140625 24.882812 33.050781 25.035156 32.96875 C 25.859375 32.445312 26.742188 32.070312 27.691406 31.839844 C 27.945312 32.125 28.238281 32.375 28.566406 32.574219 C 28.351562 32.851562 28.15625 33.140625 27.976562 33.441406 C 27.757812 33.808594 27.554688 34.183594 27.367188 34.570312 C 27.179688 34.945312 27.011719 35.328125 26.851562 35.71875 C 27.121094 35.394531 27.40625 35.082031 27.695312 34.773438 C 27.984375 34.46875 28.285156 34.183594 28.59375 33.910156 C 28.894531 33.636719 29.214844 33.394531 29.554688 33.171875 L 29.671875 33.101562 C 29.867188 33.171875 30.050781 33.230469 30.203125 33.273438 C 31.726562 33.664062 33.335938 33.601562 33.957031 33.382812 C 35.109375 32.96875 35.984375 30.929688 36.078125 29.699219 C 36.175781 28.464844 35.796875 27.867188 35.238281 27.488281 C 34.683594 27.109375 33.679688 26.953125 33.679688 26.953125 C 33.679688 26.953125 33.589844 26.304688 33.886719 26.136719 C 34.992188 25.515625 35.898438 25.191406 37.171875 25.191406 C 38.449219 25.191406 39.359375 25.515625 40.460938 26.136719 C 40.757812 26.304688 40.667969 26.953125 40.667969 26.953125 C 40.667969 26.953125 39.664062 27.113281 39.109375 27.488281 C 38.550781 27.863281 38.171875 28.472656 38.269531 29.699219 C 38.367188 30.925781 39.238281 32.960938 40.386719 33.382812 C 41.007812 33.601562 42.621094 33.664062 44.144531 33.273438 C 44.292969 33.230469 44.476562 33.171875 44.679688 33.101562 L 44.792969 33.171875 C 45.132812 33.394531 45.453125 33.636719 45.75 33.910156 C 46.0625 34.183594 46.363281 34.460938 46.652344 34.773438 C 46.941406 35.085938 47.226562 35.394531 47.492188 35.71875 C 47.339844 35.332031 47.164062 34.949219 46.980469 34.570312 C 46.792969 34.183594 46.589844 33.808594 46.371094 33.441406 C 46.191406 33.140625 45.992188 32.851562 45.777344 32.574219 C 46.105469 32.375 46.398438 32.128906 46.65625 31.839844 C 47.4375 32.027344 48.179688 32.316406 48.886719 32.707031 C 49.039062 32.785156 49.179688 32.882812 49.328125 32.972656 C 49.476562 33.054688 49.621094 33.152344 49.757812 33.253906 L 50.171875 33.5625 C 50.308594 33.667969 50.433594 33.78125 50.566406 33.894531 C 50.828125 34.121094 51.078125 34.367188 51.3125 34.621094 L 51.40625 34.714844 L 51.488281 34.816406 L 51.652344 35.015625 L 51.980469 35.421875 L 51.730469 34.964844 Z M 51.613281 34.734375 " fill-opacity="1" fill-rule="nonzero"/><path fill="#ff4b7d" d="M 37.667969 34.109375 L 37.183594 38.714844 L 36.699219 34.113281 L 34.550781 34.113281 L 34.550781 38.820312 C 34.550781 38.992188 34.570312 39.164062 34.601562 39.332031 C 34.636719 39.503906 34.6875 39.667969 34.753906 39.828125 C 34.820312 39.988281 34.898438 40.136719 34.996094 40.28125 C 35.09375 40.425781 35.203125 40.558594 35.324219 40.679688 C 35.445312 40.804688 35.578125 40.914062 35.722656 41.007812 C 35.867188 41.105469 36.019531 41.1875 36.179688 41.253906 C 36.339844 41.320312 36.5 41.367188 36.671875 41.402344 C 36.839844 41.433594 37.011719 41.453125 37.183594 41.453125 C 37.359375 41.453125 37.527344 41.433594 37.699219 41.402344 C 37.867188 41.367188 38.03125 41.320312 38.191406 41.253906 C 38.351562 41.1875 38.503906 41.105469 38.648438 41.007812 C 38.792969 40.914062 38.925781 40.804688 39.046875 40.679688 C 39.167969 40.558594 39.277344 40.425781 39.375 40.28125 C 39.472656 40.136719 39.550781 39.988281 39.617188 39.828125 C 39.683594 39.667969 39.734375 39.503906 39.769531 39.332031 C 39.800781 39.164062 39.816406 38.992188 39.816406 38.820312 L 39.816406 34.113281 L 37.667969 34.113281 Z M 37.667969 34.109375 " fill-opacity="1" fill-rule="nonzero"/><path fill="#d9d9d9" d="M 27.28125 18.246094 L 22.824219 19.058594 C 22.699219 19.078125 22.574219 19.109375 22.453125 19.148438 C 22.328125 19.183594 22.210938 19.230469 22.09375 19.28125 C 21.976562 19.332031 21.863281 19.390625 21.753906 19.457031 C 21.644531 19.519531 21.539062 19.589844 21.4375 19.667969 C 21.335938 19.746094 21.238281 19.828125 21.148438 19.917969 C 21.054688 20.007812 20.96875 20.101562 20.886719 20.199219 C 20.804688 20.296875 20.730469 20.402344 20.664062 20.507812 C 20.59375 20.613281 20.53125 20.726562 20.476562 20.839844 C 20.421875 20.957031 20.371094 21.074219 20.328125 21.195312 C 20.289062 21.316406 20.253906 21.4375 20.226562 21.5625 C 20.195312 21.6875 20.175781 21.8125 20.164062 21.9375 C 20.152344 22.066406 20.148438 22.191406 20.148438 22.320312 C 20.152344 22.449219 20.160156 22.574219 20.175781 22.703125 C 20.191406 22.828125 20.21875 22.953125 20.25 23.078125 C 20.28125 23.199219 20.320312 23.320312 20.367188 23.441406 C 20.410156 23.558594 20.464844 23.675781 20.523438 23.789062 L 21.558594 25.75 Z M 47.085938 18.246094 L 51.535156 19.058594 C 51.660156 19.078125 51.785156 19.109375 51.90625 19.148438 C 52.027344 19.183594 52.148438 19.226562 52.265625 19.28125 C 52.382812 19.332031 52.496094 19.386719 52.605469 19.453125 C 52.714844 19.519531 52.820312 19.589844 52.921875 19.667969 C 53.027344 19.742188 53.121094 19.828125 53.214844 19.914062 C 53.304688 20.003906 53.394531 20.097656 53.472656 20.195312 C 53.554688 20.292969 53.628906 20.398438 53.699219 20.503906 C 53.769531 20.613281 53.832031 20.722656 53.886719 20.839844 C 53.941406 20.953125 53.992188 21.070312 54.035156 21.191406 C 54.074219 21.3125 54.109375 21.433594 54.136719 21.558594 C 54.167969 21.683594 54.1875 21.808594 54.199219 21.9375 C 54.210938 22.0625 54.21875 22.191406 54.214844 22.320312 C 54.214844 22.449219 54.203125 22.574219 54.1875 22.699219 C 54.167969 22.828125 54.144531 22.953125 54.113281 23.078125 C 54.082031 23.199219 54.042969 23.320312 53.996094 23.441406 C 53.949219 23.558594 53.898438 23.675781 53.835938 23.789062 L 52.804688 25.75 Z M 107.78125 53.144531 C 116.765625 53.144531 122.324219 46.363281 122.324219 37.988281 C 122.324219 29.367188 116.765625 22.585938 107.78125 22.585938 C 98.792969 22.585938 93.199219 29.367188 93.199219 37.988281 C 93.199219 46.363281 98.792969 53.144531 107.78125 53.144531 Z M 107.78125 47.628906 C 102.0625 47.628906 99.121094 43.09375 99.121094 37.988281 C 99.121094 32.636719 102.0625 28.101562 107.78125 28.101562 C 113.457031 28.101562 116.480469 32.636719 116.480469 37.988281 C 116.480469 43.09375 113.457031 47.628906 107.78125 47.628906 Z M 137.035156 30.757812 C 134.5 30.757812 132.582031 31.820312 131.234375 33.617188 L 131.234375 31.328125 L 126.167969 31.328125 L 126.167969 61.273438 L 131.480469 61.273438 L 131.480469 50.570312 C 132.828125 52.121094 134.664062 53.019531 136.992188 53.019531 C 141.773438 53.019531 146.0625 48.648438 146.0625 41.746094 C 146.0625 34.964844 141.976562 30.757812 137.035156 30.757812 Z M 136.136719 48.117188 C 133.03125 48.117188 131.355469 45.585938 131.355469 41.867188 C 131.355469 38.230469 133.03125 35.699219 136.136719 35.699219 C 138.914062 35.699219 140.75 38.152344 140.75 41.867188 C 140.75 45.707031 138.914062 48.117188 136.136719 48.117188 Z M 157.660156 53.019531 C 162.074219 53.019531 166.527344 51.222656 166.527344 46.15625 C 166.527344 42.683594 164.363281 41.296875 161.253906 40.234375 L 156.761719 38.761719 C 155.128906 38.191406 154.679688 37.699219 154.679688 36.925781 C 154.679688 35.78125 155.578125 35.207031 157.578125 35.207031 C 159.460938 35.207031 160.808594 35.984375 160.847656 37.539062 L 166.035156 37.539062 C 165.992188 32.429688 162.03125 30.757812 157.703125 30.757812 C 153.539062 30.757812 149.289062 32.511719 149.207031 37.375 C 149.207031 41.253906 152.066406 42.5625 154.558594 43.339844 L 157.988281 44.441406 C 160.398438 45.257812 161.214844 45.546875 161.214844 46.648438 C 161.214844 48.035156 160.234375 48.609375 157.621094 48.609375 C 155.375 48.609375 154.027344 47.792969 153.90625 45.832031 L 148.714844 45.832031 C 148.714844 51.304688 152.84375 53.019531 157.664062 53.019531 Z M 175.308594 52.449219 L 178.78125 52.449219 L 178.78125 48.035156 L 177.066406 48.035156 C 176.042969 48.035156 175.554688 47.667969 175.554688 46.484375 L 175.554688 23.15625 L 170.28125 23.15625 L 170.28125 47.75 C 170.28125 51.425781 172.285156 52.449219 175.308594 52.449219 Z M 180.84375 61.273438 L 185.335938 61.273438 C 188.972656 61.273438 190.730469 59.882812 191.832031 56.371094 L 199.59375 31.328125 L 194.199219 31.328125 L 192.199219 39.089844 L 190.117188 47.875 L 187.503906 39.089844 L 184.96875 31.328125 L 179.171875 31.328125 L 186.5625 51.265625 C 187.136719 52.816406 187.542969 53.878906 187.542969 54.65625 C 187.542969 55.308594 187.378906 55.796875 187.011719 56.164062 C 186.5625 56.574219 185.828125 56.777344 184.96875 56.777344 L 180.84375 56.777344 Z M 180.84375 61.273438 " fill-opacity="1" fill-rule="nonzero"/></svg>