<svg xmlns="http://www.w3.org/2000/svg" xmlns:xlink="http://www.w3.org/1999/xlink" aria-hidden="true" role="img" class="MuiBox-root css-rx54le iconify iconify--uil" alt="Funnel Analytics" sx="[object Object]" width="1em" height="1em" preserveAspectRatio="xMidYMid meet" viewBox="0 0 24 24"><path fill="rgb(65, 198, 6)" d="M5 12a1 1 0 0 0-1 1v8a1 1 0 0 0 2 0v-8a1 1 0 0 0-1-1m5-10a1 1 0 0 0-1 1v18a1 1 0 0 0 2 0V3a1 1 0 0 0-1-1m10 14a1 1 0 0 0-1 1v4a1 1 0 0 0 2 0v-4a1 1 0 0 0-1-1m-5-8a1 1 0 0 0-1 1v12a1 1 0 0 0 2 0V9a1 1 0 0 0-1-1"></path></svg>