<svg enable-background="new 0 0 278 91" viewBox="0 0 278 91" xmlns="http://www.w3.org/2000/svg"><path d="m263.31.7h-228.01c-7.66 0-13.98 5.94-14.63 13.43l-17.22 6.45c-1.94.73-3.21 2.59-3.18 4.66s1.36 3.9 3.33 4.56l17 5.76v40.04c0 8.08 6.61 14.69 14.69 14.69h228.01c8.08 0 14.69-6.61 14.69-14.69v-60.21c.01-8.08-6.6-14.69-14.68-14.69z" fill="#002e47"/><path d="m233.71 53.33h-2.99v5.25h-7.24v-5.25h-10.82v-5.38l11.28-16.5h6.77v16.41h2.99v5.47zm-10.23-5.47v-3.16c0-.59.02-1.39.07-2.4.04-1.01.08-1.54.1-1.59h-.2c-.42.95-.9 1.84-1.43 2.67l-3.01 4.47h4.47z" fill="#68c5ed"/><path d="m235.88 55.5c0-1.14.34-2.02 1.01-2.64s1.65-.93 2.94-.93c1.22 0 2.17.31 2.82.93.66.62.98 1.5.98 2.64 0 1.11-.34 1.98-1.01 2.61-.67.62-1.61.94-2.79.94-1.22 0-2.19-.31-2.89-.93-.71-.62-1.06-1.49-1.06-2.62z" fill="#68c5ed"/><path d="m257.6 40.8c1.56 0 2.97.36 4.22 1.09s2.23 1.75 2.93 3.07 1.05 2.85 1.05 4.58c0 3.03-.91 5.36-2.74 6.98s-4.59 2.43-8.29 2.43c-3.17 0-5.75-.49-7.76-1.47v-6.01c1.08.5 2.29.9 3.65 1.22 1.35.32 2.52.48 3.5.48 1.36 0 2.41-.29 3.14-.86.73-.58 1.09-1.43 1.09-2.55 0-1.04-.37-1.85-1.11-2.43s-1.87-.87-3.38-.87c-1.15 0-2.39.22-3.73.65l-2.69-1.34 1.02-14.33h15.48v6.11h-9.24l-.33 3.58c.96-.19 1.65-.29 2.06-.31s.78-.02 1.13-.02z" fill="#68c5ed"/><g fill="#002e47"><g stroke="#002e47" stroke-linejoin="round" stroke-miterlimit="10" stroke-width="3.2622"><path d="m56.45 24.37c.53-.83 1.23-1.51 2.1-2.03s1.95-.78 3.24-.78c.73 0 1.4.08 1.99.25.59.16 1.12.37 1.59.61s.89.52 1.27.83c.38.32.72.63 1.02.93.45-.43.87-.9 1.25-1.4s.57-1.01.57-1.52c0-.33-.08-.63-.25-.91-.16-.28-.36-.52-.59-.72-.2-.18-.5-.4-.89-.66-.39-.27-.88-.52-1.48-.76-.59-.24-1.29-.45-2.08-.63-.8-.18-1.69-.27-2.67-.27-2 0-3.73.34-5.21 1-1.48.67-2.71 1.6-3.69 2.78-.98 1.19-1.72 2.6-2.22 4.22-.49 1.63-.74 3.4-.74 5.32s.23 3.68.68 5.28 1.17 2.99 2.14 4.17c.97 1.17 2.2 2.09 3.69 2.75s3.26.98 5.3.98c1.06 0 2-.08 2.82-.25.82-.16 1.52-.36 2.08-.59.57-.23 1.03-.45 1.38-.68s.61-.42.76-.57c.28-.28.48-.53.61-.76s.19-.5.19-.83c0-.23-.06-.48-.19-.76s-.28-.56-.45-.83c-.18-.28-.37-.54-.57-.8-.2-.25-.38-.47-.53-.64-.23.2-.51.44-.85.72s-.74.54-1.19.8c-.45.25-.98.47-1.57.64-.59.18-1.24.27-1.95.27-1.34 0-2.46-.25-3.35-.76-.9-.5-1.62-1.17-2.18-2.01-.56-.83-.95-1.79-1.17-2.88-.23-1.09-.34-2.22-.34-3.41 0-1.11.11-2.2.34-3.28.23-1.03.61-1.98 1.14-2.82z"/><path d="m88.06 31.69c0-1.17-.13-2.19-.38-3.07s-.68-1.61-1.28-2.19-1.37-1.02-2.33-1.3c-.95-.28-2.12-.42-3.49-.42-.99 0-1.93.08-2.82.25s-1.68.38-2.36.65c-.69.27-1.23.57-1.62.9s-.59.67-.59 1.03c0 .25.11.64.32 1.16.22.52.5 1 .86 1.43.81-.46 1.64-.86 2.5-1.22.85-.36 1.82-.53 2.92-.53 1.17 0 2.01.21 2.53.62s.78 1.1.78 2.08v.69c-.25 0-.53 0-.82 0s-.59.01-.9.04c-.91.05-1.92.16-3.01.34s-2.11.5-3.05.97-1.72 1.11-2.34 1.92-.93 1.86-.93 3.15c0 1.04.18 1.92.53 2.64.36.72.81 1.3 1.37 1.73s1.18.74 1.87.93 1.37.28 2.06.28c1.32 0 2.44-.2 3.35-.61s1.65-.9 2.21-1.49c.13.66.43 1.17.9 1.52.47.36 1.16.53 2.08.53.43 0 .84-.04 1.24-.11.39-.08.82-.2 1.28-.38-.58-.91-.88-2.38-.88-4.38zm-4.88 6.64c0 .2-.1.43-.29.67s-.45.46-.78.67c-.33.2-.71.37-1.14.5s-.89.19-1.37.19c-.97 0-1.65-.25-2.06-.74-.41-.5-.61-1.1-.61-1.81 0-.63.15-1.16.46-1.56.3-.41.7-.74 1.18-.99s1.03-.43 1.66-.53c.62-.1 1.25-.18 1.89-.23.18-.03.36-.04.53-.04h.53z"/><path d="m107.65 26.74c-.66-.71-1.41-1.23-2.26-1.54-.85-.32-1.74-.48-2.68-.48-1.32 0-2.41.25-3.27.74-.86.5-1.49.99-1.9 1.47-.15-.66-.53-1.13-1.11-1.41-.59-.28-1.31-.42-2.15-.42-.28 0-.52.01-.73.02-.2.01-.38.03-.54.06-.18.03-.33.05-.46.08v26.14h5.18v-9.37c.05.08.18.22.38.42s.49.41.87.61.84.39 1.39.55c.54.16 1.18.25 1.92.25.89 0 1.77-.15 2.66-.46.89-.3 1.69-.83 2.41-1.58s1.31-1.77 1.77-3.05.68-2.92.68-4.9c0-1.7-.2-3.14-.59-4.31-.38-1.17-.91-2.11-1.57-2.82zm-4.15 11.51c-.61 1.02-1.55 1.52-2.84 1.52-.68 0-1.28-.14-1.8-.42s-.88-.52-1.08-.72v-8.08c0-.48.21-.93.63-1.33.42-.41 1.16-.61 2.22-.61.71 0 1.31.13 1.8.4s.88.64 1.18 1.12c.29.48.5 1.05.63 1.72.13.66.19 1.37.19 2.13-.02 1.83-.32 3.25-.93 4.27z"/><path d="m123.69 38.48c-.08.08-.21.19-.4.34s-.41.3-.67.44c-.25.14-.54.27-.86.38s-.65.17-1.01.17c-1.45 0-2.17-.89-2.17-2.66v-8.13h5.34v-3.85h-5.34v-2.71c0-.63-.1-1.15-.3-1.54s-.47-.71-.8-.93c-.33-.23-.7-.38-1.11-.46s-.81-.11-1.22-.11c-.2 0-.41.01-.61.02s-.39.03-.57.06c-.2.03-.39.05-.57.08v17.68c0 .56.03 1.12.08 1.68s.16 1.09.34 1.6c.36.99.97 1.79 1.85 2.4s2.1.91 3.68.91c.81 0 1.56-.08 2.25-.25s1.27-.38 1.75-.65.86-.56 1.12-.88c.27-.32.4-.65.4-.98 0-.36-.1-.74-.3-1.15-.2-.42-.5-.9-.88-1.46z"/><path d="m141.7 27.18c-.62-.75-1.43-1.35-2.42-1.79s-2.2-.67-3.62-.67c-1.09 0-2.16.18-3.2.53-1.04.36-1.98.91-2.8 1.68-.83.76-1.49 1.72-1.98 2.88s-.74 2.53-.74 4.14c0 1.96.28 3.58.84 4.86s1.29 2.31 2.19 3.07 1.93 1.3 3.09 1.6 2.33.46 3.53.46c1.32 0 2.47-.15 3.45-.44s1.73-.64 2.27-1.05c.63-.46.95-.97.95-1.52 0-.38-.17-.87-.5-1.47s-.65-1.09-.96-1.47c-.23.2-.48.43-.77.67-.28.24-.61.46-.99.67-.38.2-.82.38-1.3.51-.48.14-1.05.21-1.68.21-1.66 0-2.87-.46-3.63-1.39s-1.2-2.09-1.3-3.49h11.24c.02-.13.04-.3.06-.51.01-.22.03-.44.04-.67s.02-.44.02-.65c0-.2 0-.38 0-.53 0-1.07-.14-2.08-.42-3.05-.29-.98-.74-1.83-1.37-2.58zm-9.62 5.12c0-1.3.31-2.31.94-3.03s1.46-1.09 2.51-1.09c1.23 0 2.08.38 2.55 1.14s.71 1.75.71 2.97h-6.71z"/><path d="m158.61 25.08c-.29-.14-.61-.23-.95-.28s-.67-.08-.97-.08c-.51 0-.99.08-1.43.23s-.85.34-1.22.57-.68.48-.93.76-.46.53-.61.76c-.15-.65-.53-1.14-1.12-1.45-.6-.31-1.3-.47-2.12-.47-.28 0-.52.01-.72.02s-.38.03-.53.06c-.18.03-.33.05-.46.08v18.6h5.18v-12.37c0-.64.27-1.19.8-1.64.53-.46 1.19-.69 1.98-.69.58 0 1.09.1 1.52.29s.86.46 1.3.82c.28-.51.56-1.12.84-1.84s.42-1.36.42-1.91c0-.35-.09-.65-.27-.89-.18-.25-.41-.43-.71-.57z"/><path d="m173.35 25.08c-.29-.14-.61-.23-.95-.28s-.67-.08-.97-.08c-.51 0-.98.08-1.43.23-.44.15-.85.34-1.22.57s-.68.48-.93.76-.46.53-.61.76c-.15-.65-.53-1.14-1.12-1.45-.6-.31-1.3-.47-2.12-.47-.28 0-.52.01-.72.02s-.38.03-.53.06c-.18.03-.33.05-.46.08v18.6h5.18v-12.37c0-.64.27-1.19.8-1.64.53-.46 1.19-.69 1.98-.69.58 0 1.09.1 1.52.29s.86.46 1.3.82c.28-.51.56-1.12.84-1.84s.42-1.36.42-1.91c0-.35-.09-.65-.27-.89-.18-.25-.42-.43-.71-.57z"/><path d="m191.97 38.86v-7.17c0-1.17-.13-2.19-.38-3.07s-.68-1.61-1.28-2.19-1.37-1.02-2.32-1.3-2.12-.42-3.49-.42c-.99 0-1.93.08-2.82.25s-1.68.38-2.36.65c-.69.27-1.23.57-1.62.9s-.59.67-.59 1.03c0 .25.11.64.32 1.16.22.52.5 1 .86 1.43.81-.46 1.64-.86 2.5-1.22.85-.36 1.82-.53 2.92-.53 1.17 0 2.01.21 2.53.62s.78 1.1.78 2.08v.69c-.25 0-.53 0-.82 0s-.59.01-.9.04c-.91.05-1.92.16-3.01.34s-2.11.5-3.05.97-1.72 1.11-2.34 1.92-.93 1.86-.93 3.15c0 1.04.18 1.92.53 2.64.36.72.81 1.3 1.37 1.73s1.18.74 1.87.93 1.37.28 2.06.28c1.32 0 2.44-.2 3.35-.61s1.65-.9 2.21-1.49c.13.66.43 1.17.9 1.52.47.36 1.16.53 2.08.53.43 0 .84-.04 1.24-.11.39-.08.82-.2 1.28-.38-.6-.9-.89-2.36-.89-4.37zm-4.88-.53c0 .2-.1.43-.29.67s-.45.46-.78.67c-.33.2-.71.37-1.14.5s-.89.19-1.37.19c-.97 0-1.65-.25-2.06-.74-.41-.5-.61-1.1-.61-1.81 0-.63.15-1.16.46-1.56.3-.41.7-.74 1.18-.99s1.04-.43 1.66-.53 1.25-.18 1.89-.23c.18-.03.36-.04.53-.04h.53z"/></g><path d="m25.05 31.9-19.88-6.73 27.66-10.36 13.06-4.89-13.06 41.47z"/></g><path d="m5.17 25.34h17.2l10.46.01v-10.37z" fill="#ff9d28"/><path d="m32.83 14.98v36.59l13.06-41.48z" fill="#69c3ea"/><path d="m32.83 25.35-10.46-.01 10.46 26.23z" fill="#004f80"/><path d="m5.17 25.34 19.88 6.73-2.68-6.73z" fill="#e14748"/><path d="m68.53 41.94c-.15.15-.4.34-.76.57-.35.23-.81.45-1.38.68s-1.26.42-2.08.59c-.82.16-1.76.25-2.82.25-2.05 0-3.81-.33-5.3-.98-1.49-.66-2.72-1.57-3.69-2.75-.97-1.17-1.69-2.56-2.14-4.17-.45-1.6-.68-3.37-.68-5.29s.25-3.69.74-5.32 1.23-3.04 2.22-4.22c.99-1.19 2.22-2.12 3.69-2.78 1.48-.67 3.21-1 5.21-1 .99 0 1.88.09 2.67.27.8.18 1.49.39 2.08.63s1.09.49 1.48.76.69.49.89.66c.23.2.42.44.59.72.16.28.25.58.25.91 0 .51-.19 1.01-.57 1.52s-.8.97-1.25 1.4c-.3-.3-.64-.61-1.02-.93s-.8-.59-1.27-.83-1-.44-1.59-.61c-.59-.16-1.26-.25-1.99-.25-1.29 0-2.37.26-3.24.78s-1.57 1.19-2.1 2.03c-.53.83-.91 1.79-1.14 2.86s-.34 2.17-.34 3.28c0 1.19.11 2.32.34 3.41s.62 2.05 1.17 2.88c.56.83 1.28 1.5 2.18 2.01s2.01.76 3.35.76c.71 0 1.36-.09 1.95-.27s1.12-.39 1.57-.64.85-.52 1.19-.8.63-.52.85-.72c.15.18.33.39.53.64s.39.52.57.8.33.56.45.83c.13.28.19.53.19.76 0 .33-.06.61-.19.83-.13.2-.33.45-.61.73z" fill="#fff"/><path d="m88.06 39.03c0 2.01.29 3.47.88 4.38-.46.18-.88.3-1.28.38-.39.08-.81.11-1.24.11-.91 0-1.61-.18-2.08-.53-.47-.36-.77-.86-.9-1.52-.56.59-1.3 1.08-2.21 1.49s-2.03.61-3.35.61c-.69 0-1.37-.1-2.06-.28-.69-.19-1.31-.5-1.87-.93s-1.02-1.01-1.37-1.73c-.36-.72-.53-1.6-.53-2.64 0-1.29.31-2.34.93-3.15s1.4-1.45 2.34-1.92 1.96-.79 3.05-.97 2.1-.29 3.01-.34c.31-.03.6-.04.9-.04h.82v-.69c0-.98-.26-1.67-.78-2.08s-1.37-.62-2.53-.62c-1.09 0-2.06.18-2.92.53-.85.36-1.68.76-2.5 1.22-.36-.43-.64-.91-.86-1.43s-.32-.91-.32-1.16c0-.36.2-.7.59-1.03s.93-.63 1.62-.9 1.47-.48 2.36-.65 1.83-.25 2.82-.25c1.37 0 2.53.14 3.49.42.95.28 1.73.71 2.33 1.3.6.58 1.02 1.31 1.28 2.19.25.88.38 1.9.38 3.07zm-4.88-4.42c-.18 0-.36 0-.53 0-.18 0-.36.01-.53.04-.64.05-1.26.13-1.89.23-.62.1-1.18.28-1.66.53s-.88.58-1.18.99c-.31.41-.46.93-.46 1.56 0 .71.2 1.31.61 1.81s1.09.74 2.06.74c.48 0 .94-.06 1.37-.19s.81-.29 1.14-.5c.33-.2.59-.43.78-.67s.29-.46.29-.67z" fill="#fff"/><path d="m97.55 27.1c.4-.48 1.04-.97 1.9-1.47s1.95-.74 3.27-.74c.94 0 1.83.16 2.68.48s1.6.83 2.26 1.54 1.18 1.65 1.58 2.82c.39 1.17.59 2.6.59 4.31 0 1.98-.23 3.61-.68 4.9-.46 1.28-1.04 2.3-1.77 3.05-.72.75-1.53 1.28-2.41 1.58-.89.3-1.77.46-2.66.46-.73 0-1.37-.08-1.92-.25-.54-.17-1.01-.35-1.39-.55s-.67-.41-.87-.61-.33-.34-.38-.42v9.37h-5.18v-26.15c.13-.02.28-.05.46-.08.15-.02.33-.04.54-.06.2-.01.45-.02.73-.02.84 0 1.56.14 2.15.42.57.29.94.76 1.1 1.42zm6.86 7.05c0-.76-.06-1.47-.19-2.13s-.33-1.23-.63-1.72c-.29-.48-.68-.86-1.18-1.12-.49-.27-1.09-.4-1.8-.4-1.06 0-1.8.2-2.22.61s-.63.85-.63 1.33v8.08c.2.2.56.44 1.08.72s1.12.42 1.8.42c1.29 0 2.24-.51 2.84-1.52.63-1.02.93-2.44.93-4.27z" fill="#fff"/><path d="m113.82 40.71c-.18-.51-.29-1.04-.34-1.6s-.08-1.12-.08-1.68v-17.69c.18-.02.37-.05.57-.08.18-.02.37-.04.57-.06.2-.01.41-.02.61-.02.41 0 .81.04 1.22.11.41.08.77.23 1.11.46.33.23.6.54.8.93s.3.91.3 1.54v2.71h5.34v3.85h-5.34v8.13c0 1.77.72 2.66 2.17 2.66.36 0 .69-.06 1.01-.17s.6-.24.86-.38c.25-.14.48-.29.67-.44s.32-.27.4-.34c.38.56.67 1.04.88 1.45.2.41.3.79.3 1.15 0 .33-.13.66-.4.98s-.64.62-1.12.88c-.48.27-1.07.49-1.75.65-.69.17-1.44.25-2.25.25-1.58 0-2.8-.31-3.68-.91-.88-.59-1.49-1.39-1.85-2.38z" fill="#fff"/><path d="m137.05 40.21c.64 0 1.2-.07 1.68-.21s.92-.31 1.3-.51.71-.43.99-.67.54-.46.77-.67c.31.38.62.87.96 1.47.33.6.5 1.09.5 1.47 0 .56-.32 1.07-.95 1.52-.53.41-1.29.76-2.27 1.05s-2.13.44-3.45.44c-1.19 0-2.37-.15-3.53-.46-1.16-.3-2.19-.84-3.09-1.6s-1.63-1.78-2.19-3.07c-.56-1.28-.84-2.9-.84-4.86 0-1.6.25-2.98.74-4.14.5-1.16 1.16-2.12 1.98-2.88.83-.76 1.76-1.32 2.8-1.68s2.11-.53 3.2-.53c1.42 0 2.63.22 3.62.67.99.44 1.8 1.04 2.42 1.79s1.07 1.61 1.35 2.57c.28.97.42 1.98.42 3.05v.53c0 .2-.01.42-.02.65s-.03.45-.04.67-.03.39-.06.51h-11.24c.1 1.4.54 2.56 1.3 3.49.78.94 1.99 1.4 3.65 1.4zm1.74-7.74c0-1.22-.24-2.21-.71-2.97s-1.32-1.14-2.55-1.14c-1.05 0-1.89.36-2.51 1.09-.63.72-.94 1.73-.94 3.03h6.71z" fill="#fff"/><path d="m152.5 27.2c.15-.23.36-.48.61-.76s.57-.53.93-.76c.37-.23.77-.42 1.22-.57.44-.15.92-.23 1.43-.23.3 0 .63.03.97.08s.66.15.95.28c.29.14.53.33.71.57s.27.54.27.89c0 .55-.14 1.19-.42 1.91s-.56 1.33-.84 1.84c-.43-.36-.86-.63-1.3-.82-.43-.19-.94-.29-1.52-.29-.79 0-1.45.23-1.98.69s-.8 1.01-.8 1.64v12.34h-5.18v-18.6c.13-.02.28-.05.46-.08.15-.02.33-.04.53-.06.2-.01.44-.02.72-.02.81 0 1.52.16 2.12.47.59.34.96.82 1.12 1.48z" fill="#fff"/><path d="m167.23 27.2c.15-.23.36-.48.61-.76s.57-.53.93-.76c.37-.23.77-.42 1.22-.57.44-.15.92-.23 1.43-.23.3 0 .63.03.97.08s.66.15.95.28c.29.14.53.33.71.57s.27.54.27.89c0 .55-.14 1.19-.42 1.91s-.56 1.33-.84 1.84c-.43-.36-.86-.63-1.3-.82-.43-.19-.94-.29-1.52-.29-.79 0-1.45.23-1.98.69s-.8 1.01-.8 1.64v12.34h-5.18v-18.6c.13-.02.28-.05.46-.08.15-.02.33-.04.53-.06.2-.01.44-.02.72-.02.81 0 1.52.16 2.12.47.6.34.97.82 1.12 1.48z" fill="#fff"/><path d="m191.97 39.03c0 2.01.29 3.47.88 4.38-.46.18-.88.3-1.28.38-.39.08-.81.11-1.24.11-.92 0-1.61-.18-2.08-.53-.47-.36-.77-.86-.9-1.52-.56.59-1.3 1.08-2.21 1.49s-2.03.61-3.35.61c-.69 0-1.37-.1-2.06-.28-.69-.19-1.31-.5-1.87-.93s-1.02-1.01-1.37-1.73c-.36-.72-.53-1.6-.53-2.64 0-1.29.31-2.34.93-3.15s1.4-1.45 2.34-1.92 1.96-.79 3.05-.97 2.1-.29 3.01-.34c.31-.03.6-.04.9-.04h.82v-.69c0-.98-.26-1.67-.78-2.08s-1.37-.62-2.53-.62c-1.09 0-2.06.18-2.92.53-.85.36-1.68.76-2.5 1.22-.36-.43-.64-.91-.86-1.43s-.32-.91-.32-1.16c0-.36.2-.7.59-1.03s.93-.63 1.62-.9 1.47-.48 2.36-.65 1.83-.25 2.82-.25c1.37 0 2.53.14 3.49.42.95.28 1.73.71 2.32 1.3.6.58 1.02 1.31 1.28 2.19.25.88.38 1.9.38 3.07v7.16zm-4.88-4.42c-.18 0-.36 0-.53 0-.18 0-.36.01-.53.04-.64.05-1.26.13-1.89.23-.62.1-1.18.28-1.66.53s-.88.58-1.18.99-.46.93-.46 1.56c0 .71.2 1.31.61 1.81s1.09.74 2.06.74c.48 0 .94-.06 1.37-.19s.81-.29 1.14-.5c.33-.2.59-.43.78-.67s.29-.46.29-.67z" fill="#fff"/><g fill="#ff9d28"><path d="m163.19 73.73c-.35 0-.68-.08-1-.25l-3.27-1.72c-.16-.09-.35-.13-.53-.13-.19 0-.37.05-.53.13l-3.28 1.72c-.32.17-.65.25-1 .25-.63 0-1.23-.28-1.65-.77-.41-.49-.58-1.1-.47-1.74l.62-3.65c.06-.37-.06-.75-.33-1.01l-2.65-2.58c-.59-.57-.8-1.42-.54-2.2.25-.78.92-1.34 1.73-1.46l3.66-.53c.37-.05.7-.29.86-.63l1.64-3.32c.36-.74 1.1-1.2 1.92-1.2s1.56.46 1.92 1.2l1.64 3.32c.17.34.49.57.86.63l3.66.53c.81.12 1.48.68 1.73 1.46s.05 1.63-.54 2.2l-2.65 2.58c-.27.26-.39.64-.33 1.01l.63 3.65c.11.64-.06 1.25-.47 1.74-.39.49-.99.77-1.63.77z"/><path d="m158.39 55.14c.59 0 1.17.31 1.48.92l1.64 3.32c.24.49.7.82 1.24.9l3.66.53c1.35.2 1.89 1.86.91 2.81l-2.65 2.58c-.39.38-.56.92-.47 1.46l.62 3.65c.18 1.06-.66 1.93-1.62 1.93-.25 0-.51-.06-.77-.19l-3.27-1.72c-.24-.13-.5-.19-.77-.19-.26 0-.53.06-.77.19l-3.27 1.72c-.25.13-.51.19-.77.19-.96 0-1.8-.86-1.62-1.93l.63-3.65c.09-.53-.09-1.08-.47-1.46l-2.65-2.58c-.98-.95-.44-2.61.91-2.81l3.66-.53c.54-.08 1-.41 1.24-.9l1.64-3.32c.29-.61.88-.92 1.47-.92m0-1c-1.01 0-1.92.57-2.37 1.48l-1.64 3.32c-.09.19-.28.32-.49.35l-3.66.53c-1 .15-1.82.84-2.14 1.8-.31.96-.06 2 .67 2.71l2.65 2.58c.15.15.22.36.19.57l-.63 3.65c-.13.77.08 1.55.58 2.15.51.6 1.25.95 2.03.95.43 0 .84-.1 1.23-.31l3.27-1.72c.09-.05.2-.07.3-.07s.21.03.3.07l3.27 1.72c.39.2.8.31 1.23.31.78 0 1.52-.35 2.03-.95.5-.59.71-1.38.58-2.15l-.62-3.65c-.04-.21.03-.42.19-.57l2.65-2.58c.73-.71.98-1.75.67-2.71s-1.13-1.65-2.14-1.8l-3.66-.53c-.21-.03-.39-.16-.49-.35l-1.64-3.32c-.44-.91-1.35-1.48-2.36-1.48z"/><path d="m138.23 73.73c-.35 0-.68-.08-1-.25l-3.27-1.72c-.16-.09-.35-.13-.53-.13-.19 0-.37.05-.53.13l-3.28 1.72c-.32.17-.65.25-1 .25-.63 0-1.23-.28-1.65-.77-.41-.49-.58-1.1-.47-1.74l.63-3.65c.06-.37-.06-.75-.33-1.01l-2.65-2.58c-.59-.57-.8-1.42-.54-2.2.25-.78.92-1.34 1.73-1.46l3.66-.53c.37-.05.7-.29.86-.63l1.64-3.32c.36-.74 1.1-1.2 1.92-1.2s1.56.46 1.92 1.2l1.64 3.32c.17.34.49.57.86.63l3.66.53c.81.12 1.48.68 1.73 1.46s.05 1.63-.54 2.2l-2.65 2.58c-.27.26-.39.64-.33 1.01l.62 3.65c.11.64-.06 1.25-.47 1.74-.4.49-1 .77-1.63.77z"/><path d="m133.42 55.14c.59 0 1.17.31 1.48.92l1.64 3.32c.24.49.7.82 1.24.9l3.66.53c1.35.2 1.89 1.86.91 2.81l-2.65 2.58c-.39.38-.56.92-.47 1.46l.63 3.65c.18 1.06-.66 1.93-1.62 1.93-.25 0-.51-.06-.77-.19l-3.27-1.72c-.24-.13-.5-.19-.77-.19-.26 0-.53.06-.77.19l-3.27 1.72c-.25.13-.51.19-.77.19-.96 0-1.8-.86-1.62-1.93l.63-3.65c.09-.53-.09-1.08-.47-1.46l-2.65-2.58c-.98-.95-.44-2.61.91-2.81l3.66-.53c.54-.08 1-.41 1.24-.9l1.64-3.32c.29-.61.88-.92 1.46-.92m0-1c-1.01 0-1.92.57-2.37 1.48l-1.64 3.32c-.09.19-.28.32-.49.35l-3.66.53c-1 .15-1.82.84-2.14 1.8-.31.96-.06 2 .67 2.71l2.65 2.58c.15.15.22.36.19.57l-.63 3.65c-.13.77.08 1.55.58 2.15.51.6 1.25.95 2.03.95.43 0 .84-.1 1.23-.31l3.27-1.72c.09-.05.2-.07.3-.07s.21.03.3.07l3.27 1.72c.39.2.8.31 1.23.31.78 0 1.52-.35 2.03-.95.5-.59.71-1.38.58-2.15l-.63-3.65c-.04-.21.03-.42.19-.57l2.65-2.58c.73-.71.98-1.75.67-2.71s-1.13-1.66-2.14-1.8l-3.66-.53c-.21-.03-.39-.16-.49-.35l-1.64-3.32c-.42-.91-1.33-1.48-2.35-1.48z"/><path d="m113.22 73.73c-.35 0-.68-.08-1-.25l-3.28-1.72c-.16-.09-.35-.13-.53-.13s-.37.05-.53.13l-3.28 1.72c-.32.17-.65.25-1 .25-.63 0-1.23-.28-1.65-.77-.41-.49-.58-1.11-.47-1.74l.62-3.65c.06-.37-.06-.75-.33-1.01l-2.65-2.58c-.59-.57-.8-1.42-.54-2.2.25-.78.92-1.34 1.73-1.46l3.66-.53c.37-.05.7-.29.86-.63l1.64-3.32c.36-.74 1.1-1.2 1.92-1.2s1.56.46 1.92 1.2l1.64 3.32c.17.34.49.57.86.63l3.66.53c.81.12 1.48.68 1.73 1.46s.05 1.63-.54 2.2l-2.65 2.58c-.27.26-.39.64-.33 1.01l.62 3.65c.11.64-.06 1.25-.47 1.74-.38.49-.98.77-1.61.77z"/><path d="m108.41 55.14c.59 0 1.17.31 1.48.92l1.64 3.32c.24.49.7.82 1.24.9l3.66.53c1.35.2 1.89 1.86.91 2.81l-2.65 2.58c-.39.38-.56.92-.47 1.46l.63 3.65c.18 1.06-.66 1.93-1.62 1.93-.25 0-.51-.06-.77-.19l-3.27-1.72c-.24-.13-.5-.19-.77-.19-.26 0-.53.06-.77.19l-3.27 1.72c-.25.13-.51.19-.77.19-.96 0-1.8-.86-1.62-1.93l.63-3.65c.09-.53-.09-1.08-.47-1.46l-2.65-2.58c-.98-.95-.44-2.61.91-2.81l3.66-.53c.54-.08 1-.41 1.24-.9l1.64-3.32c.29-.61.88-.92 1.46-.92m0-1c-1.01 0-1.92.57-2.37 1.47l-1.64 3.32c-.09.19-.28.32-.49.35l-3.66.53c-1 .15-1.82.84-2.14 1.8s-.06 2 .67 2.71l2.65 2.58c.15.15.22.36.19.57l-.62 3.66c-.13.77.08 1.55.58 2.15.51.6 1.25.95 2.03.95.43 0 .84-.1 1.23-.31l3.27-1.72c.09-.05.2-.07.3-.07s.21.03.3.07l3.27 1.72c.39.2.8.31 1.23.31.78 0 1.52-.35 2.03-.95.5-.59.71-1.38.58-2.15l-.63-3.65c-.04-.21.03-.42.19-.57l2.65-2.58c.73-.71.98-1.75.67-2.71s-1.13-1.66-2.14-1.8l-3.66-.53c-.21-.03-.39-.16-.49-.35l-1.64-3.32c-.43-.91-1.34-1.48-2.36-1.48z"/><path d="m88.21 73.73c-.35 0-.68-.08-1-.25l-3.27-1.72c-.16-.09-.35-.13-.53-.13s-.37.05-.53.13l-3.28 1.72c-.32.17-.65.25-1 .25-.63 0-1.23-.28-1.65-.77-.41-.49-.58-1.11-.47-1.74l.62-3.65c.06-.37-.06-.75-.33-1.01l-2.65-2.58c-.59-.57-.8-1.42-.54-2.2.25-.78.92-1.34 1.73-1.46l3.66-.53c.37-.05.7-.29.86-.63l1.64-3.32c.36-.74 1.1-1.2 1.92-1.2s1.56.46 1.92 1.2l1.64 3.32c.17.34.49.57.86.63l3.66.53c.81.12 1.48.68 1.73 1.46s.05 1.63-.54 2.2l-2.65 2.58c-.27.26-.39.64-.33 1.01l.63 3.65c.11.64-.06 1.25-.47 1.74-.4.49-1 .77-1.63.77z"/><path d="m83.4 55.14c.59 0 1.17.31 1.48.92l1.64 3.32c.24.49.7.82 1.24.9l3.66.53c1.35.2 1.89 1.86.91 2.81l-2.65 2.58c-.39.38-.56.92-.47 1.46l.63 3.65c.18 1.06-.66 1.93-1.62 1.93-.25 0-.51-.06-.77-.19l-3.27-1.72c-.24-.13-.5-.19-.77-.19-.26 0-.53.06-.77.19l-3.27 1.72c-.25.13-.51.19-.77.19-.96 0-1.8-.86-1.62-1.93l.63-3.65c.09-.53-.09-1.08-.47-1.46l-2.65-2.58c-.98-.95-.44-2.61.91-2.81l3.66-.53c.54-.08 1-.41 1.24-.9l1.64-3.32c.29-.61.87-.92 1.46-.92m0-1c-1.01 0-1.92.57-2.37 1.48l-1.64 3.32c-.09.19-.28.32-.49.35l-3.66.53c-1 .15-1.82.84-2.14 1.8-.31.96-.06 2 .67 2.71l2.65 2.58c.15.15.22.36.19.57l-.63 3.65c-.13.77.08 1.55.58 2.15.51.6 1.25.95 2.03.95.43 0 .84-.1 1.23-.31l3.27-1.72c.09-.05.2-.07.3-.07s.21.03.3.07l3.27 1.72c.39.2.8.31 1.23.31.78 0 1.52-.35 2.03-.95.5-.59.71-1.38.58-2.15l-.62-3.65c-.04-.21.03-.42.19-.57l2.65-2.58c.73-.71.98-1.75.67-2.71s-1.13-1.65-2.14-1.8l-3.66-.53c-.21-.03-.39-.16-.49-.35l-1.64-3.32c-.44-.91-1.35-1.48-2.36-1.48z"/></g><path d="m203.37 17.3v56.4" fill="none" stroke="#68c5ed" stroke-linecap="round" stroke-miterlimit="10" stroke-width=".4078"/><path d="m183.89 54.63c-.62 0-1.24.32-1.56.97l-1.73 3.51c-.25.51-.74.87-1.31.95l-3.87.56c-1.43.21-2 1.96-.96 2.97l2.8 2.73c.41.4.6.98.5 1.54l-.66 3.85c-.24 1.42 1.25 2.5 2.52 1.83l3.46-1.82c.25-.13.53-.2.81-.2" fill="#ff9d28" stroke="#ff9d28" stroke-miterlimit="10" stroke-width="1.0568"/><path d="m183.89 71.52c.28 0 .56.07.81.2l3.46 1.82c1.28.67 2.77-.41 2.52-1.83l-.66-3.85c-.1-.56.09-1.14.5-1.54l2.8-2.73c1.03-1.01.46-2.76-.96-2.97l-3.87-.56c-.57-.08-1.06-.44-1.31-.95l-1.73-3.51c-.32-.65-.94-.97-1.56-.97" fill="none" stroke="#ff9d28" stroke-miterlimit="10" stroke-width="1.0568"/></svg>